<?xml version="1.0" encoding="UTF-8" standalone="no"?><!DOCTYPE svg PUBLIC "-//W3C//DTD SVG 1.1//EN" "http://www.w3.org/Graphics/SVG/1.1/DTD/svg11.dtd"><svg width="100%" height="100%" viewBox="0 0 2667 667" version="1.1" xmlns="http://www.w3.org/2000/svg" xmlns:xlink="http://www.w3.org/1999/xlink" xml:space="preserve" xmlns:serif="http://www.serif.com/" style="fill-rule:evenodd;clip-rule:evenodd;stroke-linejoin:round;stroke-miterlimit:2;"><g><path d="M769.647,433.533l36.299,-205.44l49.406,-0l-3.025,30.753l2.269,-0c5.545,-11.764 11.679,-20.418 18.401,-25.964c6.89,-5.546 14.704,-8.318 23.443,-8.318c6.89,-0 13.78,1.26 20.67,3.781l-9.831,53.943c-3.865,-1.008 -7.73,-1.512 -11.595,-1.512c-12.436,0 -23.023,4.621 -31.761,13.864c-8.739,9.075 -14.789,22.855 -18.15,41.34l-17.393,97.553l-58.733,-0Zm237.957,-209.221c23.863,-0 41.34,6.217 52.432,18.653c10.923,12.604 16.384,29.661 16.384,51.171c0,9.075 -0.84,18.485 -2.52,28.232c-1.177,7.394 -3.109,15.125 -5.798,23.191l-105.619,-0c-1.176,6.218 -1.764,11.595 -1.764,16.133c-0,9.578 2.184,16.973 6.554,22.182c4.537,5.378 10.755,8.066 18.653,8.066c7.562,0 14.368,-1.932 20.418,-5.797c6.218,-3.697 11.511,-9.159 15.881,-16.385l39.827,16.889c-9.747,19.157 -21.258,32.517 -34.534,40.08c-13.276,7.394 -28.484,11.091 -45.625,11.091c-15.124,-0 -28.4,-3.109 -39.828,-9.327c-11.595,-6.218 -20.502,-15.46 -26.719,-27.728c-6.218,-12.1 -9.327,-26.804 -9.327,-44.113c-0,-9.075 0.924,-18.653 2.773,-28.736c5.881,-32.602 16.973,-58.061 33.273,-76.378c16.469,-18.15 38.315,-27.224 65.539,-27.224Zm1.513,43.608c-10.755,0 -19.326,3.781 -25.712,11.344c-6.385,7.562 -10.839,17.309 -13.36,29.24l57.725,0c1.177,-8.234 1.765,-14.368 1.765,-18.401c-0,-7.226 -1.513,-12.772 -4.538,-16.637c-3.024,-3.697 -8.318,-5.546 -15.88,-5.546Zm151.496,170.15c-16.469,-0 -30.081,-3.445 -40.836,-10.335c-10.923,-6.722 -18.905,-16.133 -23.947,-28.232c-5.041,-11.932 -7.562,-25.796 -7.562,-41.592c-0,-9.579 1.008,-19.83 3.025,-30.753c3.361,-19.662 9.242,-37.223 17.645,-52.684c8.402,-15.46 19.578,-27.728 33.526,-36.803c13.78,-8.906 30.08,-13.359 48.902,-13.359c23.191,-0 40.332,6.049 51.423,18.149c11.259,12.099 17.225,30.165 17.897,54.196l-48.146,6.554l0.252,-6.05c0,-10.251 -1.512,-17.729 -4.537,-22.435c-2.857,-4.705 -7.478,-7.058 -13.864,-7.058c-12.436,0 -22.435,6.134 -29.997,18.402c-7.73,12.267 -13.444,28.904 -17.141,49.91c-2.016,11.595 -3.025,21.174 -3.025,28.736c0,9.411 1.597,16.721 4.79,21.931c3.361,5.041 8.654,7.562 15.88,7.562c8.571,0 16.049,-3.445 22.435,-10.335c6.218,-6.89 11.343,-16.553 15.376,-28.988l43.861,12.855c-8.234,24.872 -19.326,42.769 -33.274,53.692c-13.78,11.091 -31.341,16.637 -52.683,16.637Zm123.012,71.841c-9.243,-0 -16.637,-0.588 -22.183,-1.765c-5.713,-1.176 -11.511,-2.857 -17.393,-5.041l14.368,-35.795c4.538,1.177 9.663,1.765 15.377,1.765c10.083,-0 18.233,-3.025 24.451,-9.075c6.218,-5.881 11.427,-14.704 15.629,-26.467l-17.393,-0l-18.15,-205.44l59.742,-0l1.764,90.998l-1.26,66.8l0.504,-0l21.93,-66.8l33.778,-90.998l60.75,-0l-90.494,207.456c-12.268,27.728 -25.292,47.054 -39.072,57.977c-13.612,10.923 -27.728,16.385 -42.348,16.385Zm233.42,-71.841c-16.469,-0 -30.165,-3.445 -41.088,-10.335c-10.755,-6.722 -18.654,-16.133 -23.695,-28.232c-5.042,-11.932 -7.562,-25.796 -7.562,-41.592c-0,-9.579 1.008,-19.83 3.025,-30.753c3.361,-19.662 9.242,-37.223 17.645,-52.684c8.402,-15.46 19.493,-27.728 33.273,-36.803c13.948,-8.906 30.333,-13.359 49.155,-13.359c23.19,-0 40.331,6.049 51.423,18.149c11.091,12.099 17.057,30.165 17.897,54.196l-48.146,6.554l-0,-6.05c-0,-10.251 -1.429,-17.729 -4.285,-22.435c-2.857,-4.705 -7.563,-7.058 -14.116,-7.058c-12.268,0 -22.267,6.134 -29.997,18.402c-7.562,12.267 -13.192,28.904 -16.889,49.91c-2.185,11.595 -3.277,21.174 -3.277,28.736c-0,9.411 1.68,16.721 5.041,21.931c3.193,5.041 8.487,7.562 15.881,7.562c8.571,0 15.965,-3.445 22.182,-10.335c6.386,-6.89 11.596,-16.553 15.629,-28.988l43.609,12.855c-8.235,24.872 -19.242,42.769 -33.022,53.692c-13.948,11.091 -31.509,16.637 -52.683,16.637Zm101.333,-4.537l48.65,-276.777l58.986,-0l-48.651,276.777l-58.985,-0Zm205.44,-209.221c24.031,-0 41.508,6.217 52.431,18.653c10.924,12.604 16.385,29.661 16.385,51.171c0,9.075 -0.84,18.485 -2.521,28.232c-1.176,7.394 -3.108,15.125 -5.797,23.191l-105.619,-0c-1.176,6.218 -1.765,11.595 -1.765,16.133c0,9.578 2.269,16.973 6.806,22.182c4.37,5.378 10.504,8.066 18.402,8.066c7.562,0 14.368,-1.932 20.418,-5.797c6.218,-3.697 11.511,-9.159 15.88,-16.385l39.828,16.889c-9.747,19.157 -21.258,32.517 -34.534,40.08c-13.276,7.394 -28.4,11.091 -45.373,11.091c-15.293,-0 -28.653,-3.109 -40.08,-9.327c-11.427,-6.218 -20.334,-15.46 -26.72,-27.728c-6.218,-12.1 -9.326,-26.804 -9.326,-44.113c-0,-9.075 0.924,-18.653 2.772,-28.736c5.882,-32.602 16.973,-58.061 33.274,-76.378c16.469,-18.15 38.315,-27.224 65.539,-27.224Zm1.765,43.608c-10.924,0 -19.578,3.781 -25.964,11.344c-6.386,7.562 -10.839,17.309 -13.36,29.24l57.725,0c1.176,-8.234 1.765,-14.368 1.765,-18.401c-0,-7.226 -1.513,-12.772 -4.538,-16.637c-3.025,-3.697 -8.234,-5.546 -15.628,-5.546Zm228.126,170.15c-16.637,-0 -30.333,-3.445 -41.088,-10.335c-10.755,-6.722 -18.653,-16.133 -23.695,-28.232c-5.041,-11.932 -7.562,-25.796 -7.562,-41.592c0,-9.579 0.924,-19.83 2.773,-30.753c3.529,-19.662 9.495,-37.223 17.897,-52.684c8.402,-15.46 19.494,-27.728 33.274,-36.803c13.78,-8.906 30.08,-13.359 48.902,-13.359c23.191,-0 40.416,6.049 51.675,18.149c11.091,12.099 17.057,30.165 17.897,54.196l-48.398,6.554l0.252,-6.05c0,-10.251 -1.428,-17.729 -4.285,-22.435c-3.025,-4.705 -7.73,-7.058 -14.116,-7.058c-12.268,0 -22.267,6.134 -29.997,18.402c-7.73,12.267 -13.444,28.904 -17.141,49.91c-2.016,11.595 -3.025,21.174 -3.025,28.736c0,9.411 1.681,16.721 5.042,21.931c3.193,5.041 8.486,7.562 15.88,7.562c8.403,0 15.797,-3.445 22.183,-10.335c6.386,-6.89 11.595,-16.553 15.628,-28.988l43.609,12.855c-8.234,24.872 -19.242,42.769 -33.022,53.692c-13.948,11.091 -31.509,16.637 -52.683,16.637Zm101.334,-4.537l36.046,-205.44l49.406,-0l-3.024,30.753l2.52,-0c5.378,-11.764 11.512,-20.418 18.402,-25.964c6.722,-5.546 14.452,-8.318 23.19,-8.318c6.89,-0 13.78,1.26 20.67,3.781l-9.578,53.943c-4.033,-1.008 -7.983,-1.512 -11.848,-1.512c-12.267,0 -22.854,4.621 -31.761,13.864c-8.739,9.075 -14.788,22.855 -18.149,41.34l-17.141,97.553l-58.733,-0Zm132.842,-0l36.047,-205.44l54.196,-0l-3.277,32.517l1.764,0c6.386,-12.267 13.78,-21.426 22.183,-27.476c8.234,-5.882 17.729,-8.822 28.484,-8.822c26.72,-0 40.08,12.099 40.08,36.298l2.016,0c8.066,-12.772 16.637,-22.014 25.712,-27.728c9.074,-5.714 19.829,-8.57 32.265,-8.57c14.452,-0 25.712,3.949 33.778,11.847c8.066,8.066 12.099,19.746 12.099,35.038c0,6.05 -0.504,12.184 -1.512,18.402l-25.459,143.934l-58.734,-0l23.695,-134.608c0.673,-3.361 1.009,-6.133 1.009,-8.318c-0,-5.714 -1.345,-9.831 -4.034,-12.352c-2.688,-2.352 -6.553,-3.529 -11.595,-3.529c-7.73,0 -14.032,3.529 -18.905,10.587c-4.874,6.89 -8.403,16.469 -10.588,28.737l-21.174,119.483l-58.733,-0l23.191,-132.087c0.84,-4.201 1.26,-8.15 1.26,-11.847c0,-5.882 -1.176,-9.831 -3.529,-11.848c-2.352,-2.016 -6.133,-3.025 -11.343,-3.025c-7.562,0 -13.78,3.529 -18.653,10.587c-4.874,6.89 -8.403,16.469 -10.588,28.737l-20.922,119.483l-58.733,-0Z" style="fill-rule:nonzero;"/><path d="M623.114,333.307c-0,72.854 -25.92,135.193 -77.808,187.085c-51.839,51.84 -114.236,77.807 -187.032,77.807c-72.796,0 -135.193,-25.967 -187.033,-77.807c-51.887,-51.887 -77.807,-114.231 -77.807,-187.085c0,-72.849 25.92,-135.14 77.807,-187.033c51.84,-51.887 114.237,-77.807 187.033,-77.807c72.796,0 135.193,25.92 187.032,77.807c51.893,51.893 77.808,114.184 77.808,187.033Zm-313.819,56.31l-37.717,-107.927l-110.629,18.535l33.14,20.527c-4.054,6.278 -8.258,12.459 -12.608,18.536c-4.418,7.49 -6.627,14.334 -6.627,20.532c0,14.546 7.491,33.945 22.519,58.249c0.916,1.775 12.555,18.806 35.079,51.029c-2.209,-12.824 2.426,-29.855 13.905,-51.029c2.209,-4.365 12.179,-20.103 29.851,-47.045l33.087,18.593Zm100.654,-227.122c-16.813,-0 -34.702,-0.212 -53.667,-0.647c-20.749,-0.858 -32.653,-1.345 -35.783,-1.345c-18.965,-0 -32.865,5.117 -41.706,15.251c-3.067,3.983 -17.455,27.588 -42.998,70.799l78.135,44.402l60.241,-103.293c9.265,-16.331 21.174,-24.733 35.778,-25.167Zm-59.595,335.696l0,-88.041l-85.461,-0c-15.41,17.184 -23.171,34.157 -23.171,50.971c0,10.128 3.555,18.863 10.616,26.184c7.061,7.221 15.897,10.886 26.455,10.886l71.561,0Zm150.28,-317.807l-33.786,20.474c-7.056,-11.85 -12.12,-19.611 -15.193,-23.165c-7.114,-7.009 -15.738,-10.563 -25.867,-10.563c-14.117,-0 -26.025,5.71 -35.725,17.243c-3.554,3.936 -11.045,15.627 -22.519,35.078l15.892,27.806l-33.082,19.182l111.864,19.881l38.416,-105.936Zm42.411,207.888c-9.758,9.265 -24.358,13.9 -43.756,13.9c-7.062,0 -17.46,-0.217 -31.09,-0.646l-31.795,-0l-0.699,-38.363l-72.097,87.4l72.097,85.997l-0,-39.015l33.14,0c13.254,0 28.717,-16.379 46.336,-49.032c0.487,-0.863 9.757,-20.909 27.864,-60.241Zm7.919,-33.733c0,-8.836 -5.552,-22.525 -16.544,-41.06c-8.232,-12.551 -16.404,-25.141 -24.516,-37.77l-76.784,43.698l42.352,71.556c6.627,1.292 13.254,1.939 19.828,1.939c13.688,-0 25.867,-2.856 36.424,-8.619c12.825,-7.003 19.24,-16.973 19.24,-29.744Z" style="fill:url(#_Linear1);fill-rule:nonzero;"/></g><defs><linearGradient id="_Linear1" x1="0" y1="0" x2="1" y2="0" gradientUnits="userSpaceOnUse" gradientTransform="matrix(480.052,223.875,-223.875,480.052,93.4343,68.4672)"><stop offset="0" style="stop-color:#41e296;stop-opacity:1"/><stop offset="1" style="stop-color:#00c4ee;stop-opacity:1"/></linearGradient></defs></svg>