<?xml version="1.0" encoding="UTF-8" standalone="no"?><!DOCTYPE svg PUBLIC "-//W3C//DTD SVG 1.1//EN" "http://www.w3.org/Graphics/SVG/1.1/DTD/svg11.dtd"><svg width="100%" height="100%" viewBox="0 0 505 134" version="1.1" xmlns="http://www.w3.org/2000/svg" xmlns:xlink="http://www.w3.org/1999/xlink" xml:space="preserve" xmlns:serif="http://www.serif.com/" style="fill-rule:evenodd;clip-rule:evenodd;stroke-linejoin:round;stroke-miterlimit:2;"><g id="Layer1"></g><g><path d="M160.487,60.557c-3.021,-0.919 -6.239,1.445 -6.239,4.794l0,17.142c0,0.525 -0.459,1.05 -1.05,1.05l-6.371,0c-0.525,0 -0.985,-0.525 -0.985,-1.05l-0,-29.751c-0,-0.591 0.46,-1.117 0.985,-1.117l6.371,0c0.591,0 0.985,0.46 1.05,0.985c3.021,-1.182 6.502,-1.05 9.786,0.263c0.263,0.131 0.46,0.328 0.591,0.657c0.066,0.197 0.066,0.525 -0.066,0.788l-2.889,5.714c-0.197,0.459 -0.657,0.722 -1.183,0.525Z" style="fill:#f2f2f2;fill-rule:nonzero;"/><path d="M181.963,50.903c9.195,-0 16.682,7.487 16.682,16.616c-0,0.853 -0.066,1.641 -0.197,2.43c-0.066,0.591 -0.591,0.985 -1.117,0.985l-22.198,-0c1.248,2.561 3.94,4.269 6.83,4.269c1.773,-0 3.35,-0.591 4.663,-1.577c0.46,-0.394 1.051,-0.328 1.511,0.066l4.794,4.794c0.197,0.263 0.328,0.526 0.328,0.854c0,0.328 -0.131,0.591 -0.394,0.788c-2.955,2.562 -6.764,4.072 -10.902,4.072c-9.194,0 -16.616,-7.487 -16.616,-16.681c0,-9.129 7.422,-16.616 16.616,-16.616Zm6.83,13.266c-1.247,-2.627 -3.94,-4.269 -6.83,-4.269c-2.955,0 -5.582,1.642 -6.83,4.269l13.66,0Z" style="fill:#f2f2f2;fill-rule:nonzero;"/><path d="M218.281,75.203c1.708,-0 3.35,-0.657 4.663,-1.577c0.394,-0.394 1.051,-0.394 1.445,0.066l4.86,4.86c0.197,0.197 0.328,0.46 0.328,0.788c-0.065,0.328 -0.197,0.591 -0.394,0.854c-2.955,2.496 -6.83,4.006 -10.902,4.006c-9.26,0 -16.681,-7.421 -16.681,-16.681c-0,-9.195 7.421,-16.616 16.681,-16.616c4.072,-0 7.947,1.51 10.902,4.006c0.197,0.263 0.329,0.525 0.394,0.854c0,0.328 -0.131,0.591 -0.328,0.788l-4.86,4.794c-0.394,0.46 -1.051,0.526 -1.445,0.132c-1.313,-0.986 -2.955,-1.577 -4.663,-1.577c-10.114,0 -10.048,15.303 0,15.303Z" style="fill:#f2f2f2;fill-rule:nonzero;"/><path d="M250.134,83.018l-0,-0.525c-1.248,0.394 -2.562,0.591 -3.941,0.591c-6.83,-0 -12.675,-5.517 -12.675,-12.413l-0,-18.061c-0,-0.591 0.46,-1.05 1.116,-1.05l6.568,-0c0.657,-0 1.116,0.459 1.116,1.05l0,18.061c0,2.102 1.839,3.612 3.875,3.612c2.036,0 3.941,-1.51 3.941,-3.612l-0,-18.061c-0,-0.591 0.459,-1.05 1.051,-1.05l6.633,-0c0.591,-0 1.116,0.459 1.116,1.05l0,30.408c0,12.347 -13.003,15.565 -22.986,12.084c-0.591,-0.197 -0.919,-0.919 -0.591,-1.51l2.955,-5.846c0.197,-0.459 0.723,-0.722 1.248,-0.591c4.729,1.183 10.574,0.197 10.574,-4.137Z" style="fill:#f2f2f2;fill-rule:nonzero;"/><path d="M279.556,75.203c1.708,-0 3.35,-0.657 4.663,-1.577c0.394,-0.394 1.051,-0.394 1.445,0.066l4.86,4.86c0.197,0.197 0.328,0.46 0.328,0.788c-0.065,0.328 -0.197,0.591 -0.394,0.854c-2.955,2.496 -6.83,4.006 -10.902,4.006c-9.26,0 -16.681,-7.421 -16.681,-16.681c-0,-9.195 7.421,-16.616 16.681,-16.616c4.072,-0 7.947,1.51 10.902,4.006c0.197,0.263 0.329,0.525 0.394,0.854c0,0.328 -0.131,0.591 -0.328,0.788l-4.86,4.794c-0.394,0.46 -1.051,0.526 -1.445,0.132c-1.313,-0.986 -2.955,-1.577 -4.663,-1.577c-10.114,0 -10.048,15.303 0,15.303Z" style="fill:#f2f2f2;fill-rule:nonzero;"/><path d="M294.793,38.687c-0,-0.591 0.525,-1.116 1.116,-1.116l6.502,-0c0.591,-0 1.116,0.525 1.116,1.116l0,43.74c0,0.657 -0.525,1.116 -1.116,1.116l-6.502,0c-0.591,0 -1.116,-0.459 -1.116,-1.116l-0,-43.74Z" style="fill:#f2f2f2;fill-rule:nonzero;"/><path d="M325.069,50.903c9.194,-0 16.681,7.487 16.681,16.616c0,0.853 -0.065,1.641 -0.197,2.43c-0.065,0.591 -0.591,0.985 -1.116,0.985l-22.198,-0c1.247,2.561 3.94,4.269 6.83,4.269c1.773,-0 3.349,-0.591 4.663,-1.577c0.459,-0.394 1.051,-0.328 1.51,0.066l4.795,4.794c0.197,0.263 0.328,0.526 0.328,0.854c-0,0.328 -0.131,0.591 -0.394,0.788c-2.956,2.562 -6.765,4.072 -10.902,4.072c-9.195,0 -16.616,-7.487 -16.616,-16.681c0,-9.129 7.421,-16.616 16.616,-16.616Zm6.83,13.266c-1.248,-2.627 -3.94,-4.269 -6.83,-4.269c-2.956,0 -5.583,1.642 -6.83,4.269l13.66,0Z" style="fill:#f2f2f2;fill-rule:nonzero;"/><path d="M354.754,60.557c-0,-3.875 1.51,-7.618 4.203,-10.377l0.066,0c2.758,-2.758 6.436,-4.268 10.311,-4.268c1.97,-0 3.875,0.394 5.648,1.116c0.722,0.328 1.445,0.657 2.101,1.117c0.46,0.262 1.051,0.197 1.38,-0.198l4.859,-4.859c0.263,-0.197 0.395,-0.526 0.329,-0.854c-0,-0.329 -0.197,-0.657 -0.46,-0.854c-1.51,-1.051 -3.087,-1.97 -4.794,-2.693c-2.89,-1.182 -5.911,-1.773 -9.063,-1.773c-6.239,0 -12.216,2.496 -16.682,6.896l0,0.066c-4.466,4.4 -6.961,10.376 -6.961,16.681c-0,6.305 2.495,12.281 6.961,16.682l0,0.065c4.466,4.4 10.443,6.896 16.682,6.896c3.152,0 6.173,-0.591 9.063,-1.773c1.707,-0.723 3.284,-1.642 4.794,-2.693c0.263,-0.197 0.46,-0.525 0.46,-0.854c0.066,-0.328 -0.066,-0.656 -0.329,-0.853l-4.859,-4.86c-0.329,-0.394 -0.92,-0.46 -1.38,-0.197c-0.656,0.459 -1.379,0.853 -2.101,1.116c-1.773,0.723 -3.678,1.117 -5.648,1.117c-3.875,-0 -7.553,-1.511 -10.311,-4.269l-0.066,-0c-2.693,-2.759 -4.203,-6.502 -4.203,-10.377Z" style="fill:#f2f2f2;fill-rule:nonzero;"/><path d="M388.642,83.543l6.633,0c0.591,0 1.051,-0.459 1.051,-1.116l0,-12.15l8.866,-0l7.487,12.741c0.263,0.328 0.591,0.525 0.985,0.525l7.619,0c0.394,0 0.722,-0.197 0.919,-0.591c0.197,-0.328 0.197,-0.722 0,-1.051l-7.881,-13.397c5.451,-3.284 8.866,-8.013 8.866,-14.58c0,-8.998 -7.355,-16.353 -16.353,-16.353l-18.192,-0c-0.591,-0 -1.051,0.46 -1.051,1.116l0,43.74c0,0.657 0.46,1.116 1.051,1.116Zm7.684,-22.066l0,-15.171l10.508,-0c4.203,-0 7.553,3.415 7.553,7.618c-0,4.203 -3.35,7.553 -7.553,7.553l-10.508,-0Z" style="fill:#f2f2f2;fill-rule:nonzero;"/><path d="M472.246,83.543l6.568,0c0.657,0 1.116,-0.591 1.051,-1.248l-5.78,-43.608c-0.065,-0.525 -0.525,-0.919 -1.051,-0.985l-7.289,-0.131c-0.526,-0 -0.92,0.328 -1.117,0.788l-11.165,35.202l-11.164,-35.202c-0.132,-0.46 -0.526,-0.788 -1.051,-0.788l-7.29,0.131c-0.526,0 -0.985,0.46 -1.051,0.985l-5.779,43.608c-0.132,0.657 0.394,1.248 1.05,1.248l6.568,0c0.591,0 0.985,-0.394 1.116,-0.919l3.35,-25.351l8.078,25.482c0.131,0.46 0.525,0.788 1.051,0.788l10.311,0c0.525,0 0.919,-0.328 1.05,-0.788l8.078,-25.482l3.35,25.351c0.066,0.525 0.525,0.919 1.116,0.919Z" style="fill:#f2f2f2;fill-rule:nonzero;"/><g id="layer1"><g id="g3535"><path id="path2742" d="M91.674,60.98l27.481,-16.774l12.312,24.249c2.975,13.248 -13.324,18.109 -26.41,17.32l-13.383,-24.795Z" style="fill:#f2f2f2;"/><path id="path2743" d="M85.428,78.3l-14.452,26.072l14.452,26.436l0.358,-10.574l13.205,-0c4.818,0.425 11.063,-2.797 13.383,-7.475l16.952,-31.724c-5.591,5.652 -12.781,7.11 -21.056,7.11l-22.306,0l-0.536,-9.845Z" style="fill:#f2f2f2;"/><path id="path2751" d="M53.135,46.156l-27.692,-16.407l14.774,-22.769c9.893,-9.087 21.965,3.112 27.64,15.185l-14.722,23.991Z" style="fill:#f2f2f2;"/><path id="path2752" d="M70.988,43.328l29.326,0.257l15.605,-25.743l-9.222,4.813l-6.409,-11.796c-1.974,-4.51 -7.761,-8.526 -12.892,-8.327l-35.374,0.255c7.549,2.251 12.288,7.966 16.304,15.359l10.828,19.925l-8.166,5.257Z" style="fill:#f2f2f2;"/><path id="path2753" d="M4.253,44.797l8.58,6.704l-8.076,15.47c-4.038,7.135 2.899,14.083 7.319,16.502c4.351,2.382 11.103,2.665 17.412,2.578l11.357,-18.564l8.579,4.641l-14.889,-27.589l-30.283,0.258l0.001,0Z" style="fill:#f2f2f2;"/><path id="path2754" d="M5.514,80.637l18.422,34.034c3.702,4.727 10.684,5.845 17.918,5.674l19.431,-0l0,-32.231l-36.844,-0.258c-5.72,0.345 -13.207,-0.858 -18.927,-7.219Z" style="fill:#f2f2f2;"/></g></g></g></svg>