<?xml version="1.0" encoding="UTF-8" standalone="no"?><!DOCTYPE svg PUBLIC "-//W3C//DTD SVG 1.1//EN" "http://www.w3.org/Graphics/SVG/1.1/DTD/svg11.dtd"><svg width="100%" height="100%" viewBox="0 0 2667 667" version="1.1" xmlns="http://www.w3.org/2000/svg" xmlns:xlink="http://www.w3.org/1999/xlink" xml:space="preserve" xmlns:serif="http://www.serif.com/" style="fill-rule:evenodd;clip-rule:evenodd;stroke-linejoin:round;stroke-miterlimit:2;"><g><path d="M747.857,222.331l-0,210.492l47.304,-0l-0,-119.388c-0,-34.039 19.272,-46.303 42.048,-46.303c5.256,0 10.012,0.501 14.267,1.001l-0,-48.555c-2.754,-0.501 -6.258,-0.751 -9.762,-0.751c-21.775,-0 -40.046,9.511 -50.057,22.526l-2.753,-19.022l-41.047,-0Zm239.024,147.419c-1.251,18.271 -8.76,28.533 -33.038,28.533c-24.278,-0 -33.538,-13.015 -33.538,-39.045l-0,-17.52l112.128,-0l0,-43.3c0,-55.313 -25.779,-80.342 -78.59,-80.342c-54.062,0 -79.842,28.783 -79.842,81.093l0,55.314c0,58.066 25.53,82.594 80.092,82.594c54.063,0 75.087,-23.527 76.588,-67.327l-43.8,0Zm-32.788,-112.379c24.278,0 33.289,13.015 33.289,40.547l-0,7.759l-67.077,-0l-0,-6.258c-0,-30.034 9.26,-42.048 33.788,-42.048Zm225.509,100.616l0,3.754c0,23.277 -9.511,34.039 -33.788,34.039c-24.529,0 -33.539,-12.014 -33.539,-41.047l0,-55.063c0,-29.284 9.761,-39.796 34.039,-39.796c23.277,0 32.537,10.011 32.537,32.788l0,4.004l45.803,0l0,-4.255c0,-49.807 -24.778,-74.335 -79.091,-74.335c-54.062,0 -80.592,25.529 -80.592,82.345l-0,54.062c-0,57.065 25.779,82.594 79.841,82.594c55.814,0 80.343,-25.529 80.343,-76.087l-0,-3.003l-45.553,-0Zm98.363,100.615c-8.51,0 -14.767,-1.251 -20.273,-2.503l-0,44.551c9.761,2.754 16.769,3.504 28.032,3.504c42.299,0 67.327,-19.772 85.849,-90.103l50.307,-191.72l-52.56,-0l-30.785,152.675l-39.295,-152.675l-53.812,-0l64.073,207.488l-1.501,5.506c-4.756,19.273 -17.52,23.277 -30.035,23.277Zm279.321,-100.615l-0,3.754c-0,23.277 -9.511,34.039 -33.789,34.039c-24.528,0 -33.538,-12.014 -33.538,-41.047l-0,-55.063c-0,-29.284 9.761,-39.796 34.039,-39.796c23.527,0 32.537,10.011 32.537,32.788l0,4.004l45.803,0l-0,-4.255c-0,-49.807 -24.779,-74.335 -79.091,-74.335c-54.062,0 -80.593,25.529 -80.593,82.345l0,54.062c0,57.065 26.03,82.594 79.842,82.594c55.814,0 80.342,-25.529 80.342,-76.087l0,-3.003l-45.552,-0Zm157.18,35.04c-21.274,1.001 -28.532,-4.255 -28.532,-33.038l-0,-197.477l-47.054,0l-0,195.475c-0,58.817 14.767,83.345 75.586,77.088l0,-42.048Zm134.655,-23.277c-1.001,18.271 -8.76,28.533 -33.038,28.533c-24.028,-0 -33.539,-13.015 -33.539,-39.045l0,-17.52l112.129,-0l0,-43.3c0,-55.313 -25.529,-80.342 -78.59,-80.342c-53.812,0 -79.842,28.783 -79.842,81.093l0,55.314c0,58.066 25.53,82.594 80.343,82.594c53.811,0 74.835,-23.527 76.337,-67.327l-43.8,0Zm-32.537,-112.379c24.027,0 33.288,13.015 33.288,40.547l-0,7.759l-67.328,-0l0,-6.258c0,-30.034 9.511,-42.048 34.04,-42.048Zm312.859,100.616l-0,3.754c-0,23.277 -9.511,34.039 -33.539,34.039c-24.528,0 -33.789,-12.014 -33.789,-41.047l0,-55.063c0,-29.284 9.762,-39.796 34.04,-39.796c23.527,0 32.537,10.011 32.537,32.788l-0,4.004l46.053,0l-0,-4.255c-0,-49.807 -25.029,-74.335 -79.341,-74.335c-53.812,0 -80.593,25.529 -80.593,82.345l0,54.062c0,57.065 26.03,82.594 79.842,82.594c55.814,0 80.342,-25.529 80.342,-76.087l0,-3.003l-45.552,-0Zm82.094,-135.656l-0,210.492l47.304,-0l0,-119.388c0,-34.039 19.272,-46.303 42.049,-46.303c5.256,0 10.011,0.501 14.266,1.001l-0,-48.555c-2.753,-0.501 -6.257,-0.751 -9.761,-0.751c-21.775,-0 -40.046,9.511 -50.058,22.526l-3.003,-19.022l-40.797,-0Zm227.011,-4.255c-23.778,0 -39.546,6.257 -51.56,18.521l-2.002,-14.266l-41.047,-0l-0,210.492l47.304,-0l0,-138.409c0,-23.778 12.515,-34.54 32.287,-34.54c23.277,0 31.036,11.513 31.036,40.296l-0,132.653l47.304,-0l0,-133.153c0,-28.533 12.765,-39.796 32.538,-39.796c23.527,0 31.286,11.513 31.286,39.295l-0,133.654l47.304,-0l-0,-138.66c-0,-52.56 -18.271,-76.087 -66.827,-76.087c-25.779,0 -45.552,8.76 -57.316,25.029c-10.512,-17.27 -26.78,-25.029 -50.307,-25.029Z" style="fill:#08403f;fill-rule:nonzero;"/><path d="M515.488,143.896c-2.28,-3.953 -7.454,-6.597 -11.538,-4.246l-4.305,2.487c-5.837,3.366 -9.312,-1.287 -10.202,-2.737l-13.096,-22.684c-0.918,-1.586 -22.902,-38.898 -62.489,-39.614l-159.276,0.038l-0.527,-0c-48.399,-0.826 -75.737,36.253 -76.872,37.838c-0.081,0.103 -0.141,0.212 -0.206,0.321l-41.737,72.685c-2.508,4.338 -2.546,9.051 -0.114,13.264c1.508,2.517 3.581,4.65 6.054,6.228l100.213,57.863c0.342,0.195 3.502,1.949 7.732,1.944c4.04,-0 9.762,-1.586 14.117,-9.127l63.26,-109.569l36.752,63.667c3.247,5.614 0.543,7.927 -0.309,8.465l-5.066,2.926c-4.648,2.683 -6.445,9.008 -3.822,13.536c1.319,2.281 3.556,3.774 6.309,4.197l108.938,16.702c1.667,0.252 3.304,-0.674 3.948,-2.232l42.763,-104.171c1.124,-2.422 0.928,-5.262 -0.527,-7.781Zm-258.582,110.6c-4.599,7.96 -10.697,5.131 -11.842,4.501l-100.11,-57.803c-1.405,-0.94 -2.592,-2.172 -3.481,-3.61c-1.135,-1.961 -1.097,-3.845 0.114,-5.946l41.634,-72.512c0.831,-1.107 6.803,-8.714 17.152,-16.527l-6.434,11.141c-0.321,0.557 -0.49,1.188 -0.49,1.83c-0,2.008 1.653,3.661 3.661,3.661c1.307,0 2.518,-0.699 3.171,-1.831l13.443,-23.271c4.979,-2.601 10.539,-4.887 16.626,-6.597l-15.665,27.12c-0.306,0.548 -0.467,1.164 -0.467,1.791c0,2.011 1.654,3.665 3.665,3.665c1.291,0 2.49,-0.681 3.15,-1.791l18.981,-32.876c4.426,-0.688 8.9,-1.015 13.379,-0.977l-17.961,31.101c-0.358,0.578 -0.547,1.245 -0.547,1.925c0,2.011 1.654,3.665 3.665,3.665c1.348,0 2.591,-0.743 3.229,-1.931l19.677,-34.081c3.795,0.597 7.52,1.583 11.114,2.943l-16.392,28.391c-0.306,0.547 -0.467,1.164 -0.467,1.791c-0,2.01 1.654,3.665 3.665,3.665c1.29,-0 2.489,-0.682 3.149,-1.791l16.74,-28.994c3.393,1.775 6.526,3.779 9.387,5.918l-11.733,20.323c-0.357,0.579 -0.547,1.246 -0.547,1.926c0,2.01 1.655,3.665 3.665,3.665c1.348,-0 2.591,-0.744 3.229,-1.931l11.142,-19.297c3.143,2.823 5.836,5.636 8.068,8.226l-4.805,8.329c-0.322,0.557 -0.492,1.189 -0.492,1.832c0,2.009 1.654,3.662 3.663,3.662c1.306,0 2.517,-0.699 3.17,-1.829l3.356,-5.821c1.808,2.508 2.823,4.175 2.856,4.246l12.043,20.849l-65.361,113.25Zm252.393,-105.74l-41.721,101.646l-106.088,-16.261c-0.712,-0.103 -0.95,-0.386 -1.086,-0.619c-0.5,-0.869 -0.239,-2.726 1.14,-3.524l5.071,-2.921c2.845,-1.651 8.937,-8.177 2.987,-18.482l-53.026,-91.847c-0.667,-1.162 -12.455,-21.159 -33.505,-32.278l130.716,-0.033c35.325,0.641 56.012,35.602 56.218,35.949l13.118,22.717c3.024,5.104 10.897,10.745 20.181,5.381l4.127,-2.384c0.725,0.27 1.331,0.787 1.71,1.461c0.092,0.157 0.386,0.706 0.158,1.195Zm-114.189,440.809c4.56,-0 9.442,-3.16 9.442,-7.867l-0,-4.974c-0,-6.733 5.771,-7.417 7.471,-7.466l26.186,0c1.836,0 45.142,-0.385 65.557,-34.314l79.608,-137.955l0.261,-0.439l-0,-0.011c24.916,-41.509 6.466,-83.719 5.668,-85.494c-0.054,-0.114 -0.108,-0.233 -0.174,-0.342l-42.079,-72.485c-2.503,-4.338 -6.564,-6.721 -11.434,-6.721c-2.933,0.048 -5.815,0.779 -8.416,2.133l-100.224,57.852c-2.286,1.429 -4.189,3.393 -5.544,5.723c-2.02,3.497 -3.507,9.247 0.847,16.788l63.254,109.569l-73.516,-0.011c-6.477,-0 -7.129,-3.502 -7.172,-4.496l-0.006,-5.847c0,-5.37 -4.582,-10.078 -9.805,-10.078c-2.639,0 -5.061,1.195 -6.798,3.367l-68.928,85.988c-1.049,1.318 -1.067,3.195 -0.044,4.533l68.841,89.121c1.532,2.183 4.089,3.431 7.005,3.426Zm33.511,-279.242c-4.599,-7.96 0.901,-11.826 2.02,-12.504l100.11,-57.793c0.027,-0.016 2.334,-1.21 4.865,-1.21c2.269,-0 3.893,0.971 5.093,3.062l41.981,72.316c0.537,1.271 4.148,10.246 5.734,23.119l-6.434,-11.147c-0.66,-1.109 -1.859,-1.791 -3.15,-1.791c-2.011,0 -3.665,1.655 -3.665,3.665c0,0.627 0.161,1.244 0.467,1.791l13.439,23.271c-0.252,5.973 -1.124,11.903 -2.601,17.695l-15.659,-27.12c-0.654,-1.134 -1.868,-1.835 -3.176,-1.835c-2.012,0 -3.667,1.655 -3.667,3.667c-0,0.643 0.169,1.275 0.49,1.833l18.982,32.876c-1.615,4.177 -3.569,8.216 -5.842,12.075l-17.956,-31.101c-0.623,-1.234 -1.893,-2.015 -3.276,-2.015c-2.013,-0 -3.67,1.657 -3.67,3.67c-0,0.714 0.208,1.413 0.599,2.01l19.677,34.076c-2.415,2.99 -5.131,5.723 -8.106,8.155l-16.398,-28.391c-0.654,-1.132 -1.866,-1.832 -3.173,-1.832c-2.011,0 -3.665,1.654 -3.665,3.665c0,0.643 0.169,1.275 0.491,1.832l16.745,28.994c-3.236,2.052 -6.537,3.768 -9.828,5.18l-11.733,-20.323c-0.653,-1.132 -1.864,-1.831 -3.171,-1.831c-2.008,-0 -3.661,1.652 -3.661,3.661c0,0.642 0.169,1.273 0.49,1.83l11.142,19.302c-4.018,1.314 -7.802,2.231 -11.158,2.872l-4.81,-8.329c-0.66,-1.109 -1.859,-1.791 -3.15,-1.791c-2.011,0 -3.665,1.655 -3.665,3.665c0,0.627 0.161,1.244 0.467,1.791l3.361,5.826c-1.696,0.181 -3.398,0.297 -5.104,0.347l-24.074,-0.005l-65.361,-113.228Zm-34.624,271.456l-67.164,-86.96l67.12,-83.745c0.451,-0.56 0.809,-0.625 1.081,-0.625c0.999,0 2.481,1.151 2.481,2.748l-0,5.853c-0,3.285 2.601,11.825 14.508,11.825l106.05,0.006c1.346,-0 24.552,-0.207 44.707,-12.879l-65.329,113.222c-18.21,30.27 -58.834,30.705 -59.242,30.705l-26.224,-0c-5.94,0.076 -14.752,4.072 -14.763,14.795l0.011,4.762c-0.599,0.495 -1.352,0.764 -2.129,0.76c-0.179,-0.005 -0.798,-0.033 -1.107,-0.467Zm-325.329,-319.779c-2.28,3.953 -1.987,9.757 2.091,12.113l4.305,2.487c5.837,3.372 3.54,8.709 2.737,10.202l-13.102,22.685c-0.912,1.585 -22.234,39.283 -3.057,73.929l79.674,137.91l0.255,0.44l0.005,0.016c23.489,42.324 69.265,47.455 71.204,47.65c0.126,0.016 0.253,0.023 0.38,0.022l83.821,-0.201c5.006,0 9.106,-2.324 11.543,-6.543c2.172,-3.762 2.351,-7.807 2.362,-8.356l0.006,-115.72c-0,-0.391 -0.065,-3.996 -2.183,-7.661c-2.014,-3.497 -6.249,-7.661 -14.958,-7.661l-126.525,-0l36.758,-63.667c3.241,-5.614 6.602,-4.425 7.482,-3.958l5.071,2.915c4.648,2.688 11.016,1.076 13.633,-3.453c1.32,-2.28 1.488,-4.973 0.484,-7.569l-40.011,-102.683c-0.612,-1.571 -2.233,-2.527 -3.904,-2.302l-111.599,15.056c-2.66,0.239 -5.022,1.829 -6.472,4.349Zm225.072,168.642c9.187,-0 9.789,6.689 9.816,7.998l0,115.595c0,0.027 -0.114,2.622 -1.39,4.816c-1.129,1.965 -2.78,2.878 -5.201,2.878l-83.615,0.2c-1.379,-0.162 -10.946,-1.531 -22.891,-6.596l12.862,0.005c2.011,-0 3.665,-1.654 3.665,-3.665c0,-2.011 -1.654,-3.665 -3.665,-3.665l-26.865,0c-5.045,-3.207 -9.745,-6.928 -14.025,-11.103l31.323,-0c2.011,-0 3.665,-1.655 3.665,-3.665c0,-2.011 -1.654,-3.665 -3.665,-3.665l-37.963,-0c-2.811,-3.485 -5.332,-7.195 -7.536,-11.093l35.911,0c2.01,0 3.665,-1.654 3.665,-3.665c-0,-2.01 -1.655,-3.665 -3.665,-3.665l-39.354,0c-1.381,-3.586 -2.389,-7.305 -3.008,-11.098l32.784,0c2.011,0 3.665,-1.654 3.665,-3.665c0,-2.01 -1.654,-3.665 -3.665,-3.665l-33.484,0.006c-0.146,-3.707 -0,-7.42 0.434,-11.104l23.467,0c2.009,0 3.662,-1.653 3.662,-3.662c0,-2.009 -1.653,-3.662 -3.662,-3.662l-22.283,-0c0.874,-4.138 1.966,-7.873 3.089,-11.104l9.616,0c2.011,0 3.665,-1.654 3.665,-3.665c0,-2.01 -1.654,-3.665 -3.665,-3.665l-6.722,0c1.266,-2.817 2.205,-4.522 2.248,-4.598l12.038,-20.844l130.749,-0l-0,0.016Zm-217.78,-165.716l108.895,-14.687l38.957,100.002c0.267,0.662 0.142,1.015 0.006,1.243c-0.5,0.869 -2.237,1.575 -3.622,0.782l-5.065,-2.932c-2.845,-1.639 -11.549,-3.654 -17.5,6.657l-53.03,91.846c-0.674,1.162 -12.103,21.366 -11.201,45.152l-65.383,-113.184c-17.103,-30.911 2.829,-66.306 3.029,-66.653l13.113,-22.718c2.91,-5.179 3.855,-14.811 -5.43,-20.176l-4.126,-2.378c-0.131,-0.763 0.014,-1.548 0.407,-2.215c0.087,-0.163 0.418,-0.684 0.95,-0.739Z" style="fill:url(#_Linear1);fill-rule:nonzero;"/></g><defs><linearGradient id="_Linear1" x1="0" y1="0" x2="1" y2="0" gradientUnits="userSpaceOnUse" gradientTransform="matrix(492.084,216.576,-216.576,492.084,53.6688,77.1017)"><stop offset="0" style="stop-color:#41e296;stop-opacity:1"/><stop offset="1" style="stop-color:#00c4ee;stop-opacity:1"/></linearGradient></defs></svg>